PathFileType	4	(X/Y/Z)	Patient4_TMGait_0pt4_01_right_35.trc.trc
DataRate	CameraRate	NumFrames	NumMarkers	Units	OrigDataRate	OrigDataStartFrame	OrigNumFrames
73.298429319372	73.298429319372	4	33	mm	73.298429319372	71	       141
Frame#	Time	Sacral			L.Shoulder			Chest			R.Shoulder			Neck			R.ASIS			L.ASIS			R.Thigh.Superior			R.Thigh.Lateral			R.Thigh.Inferior			R.Patella			L.Thigh.Superior			L.Thigh.Lateral			L.Thigh.Inferior			L.Patella			L.Shank.Superior			L.Shank.Lateral			L.Shank.Inferior			R.Shank.Superior			R.Shank.Lateral			R.Shank.Inferior			R.Heel			R.Midfoot.Superior			R.Midfoot.Lateral			R.Toe			L.Heel			L.Midfoot.Lateral			L.Midfoot.Superior			L.Toe			L.Elbow			L.Wrist			R.Elbow			R.Wrist			
		X1	Y1	Z1	X2	Y2	Z2	X3	Y3	Z3	X4	Y4	Z4	X5	Y5	Z5	X6	Y6	Z6	X7	Y7	Z7	X8	Y8	Z8	X9	Y9	Z9	X10	Y10	Z10	X11	Y11	Z11	X12	Y12	Z12	X13	Y13	Z13	X14	Y14	Z14	X15	Y15	Z15	X16	Y16	Z16	X17	Y17	Z17	X18	Y18	Z18	X19	Y19	Z19	X20	Y20	Z20	X21	Y21	Z21	X22	Y22	Z22	X23	Y23	Z23	X24	Y24	Z24	X25	Y25	Z25	X26	Y26	Z26	X27	Y27	Z27	X28	Y28	Z28	X29	Y29	Z29	X30	Y30	Z30	X31	Y31	Z31	X32	Y32	Z32	X33	Y33	Z33	

71	46.495000000000	814.931916560708	1002.694546829182	541.963208425549	960.394535315198	1432.904980357731	343.605934645153	1089.842938322517	1362.318996191120	483.599163014808	1038.199878141653	1433.609497519777	670.246311149657	972.060457015507	1491.841665165154	501.602059798816	1056.502299446411	937.241968212418	626.312840473554	1006.239362025256	960.424637342229	355.032647506673	1056.051620398855	726.066716124313	599.470100706900	958.420922646084	629.886764361728	668.491407288795	1016.080556709702	565.929482835760	585.703253969080	999.052499567689	482.210531708443	592.731425380460	1080.855794610691	769.256911686102	374.488589587477	1018.782618455400	640.523461692755	306.728679568326	1125.380831909157	579.370309117178	358.006940634872	1148.092017963067	514.217566017817	355.711202722027	1129.077029400024	441.931601888700	347.152731586030	1055.308746278682	315.288191856315	299.624308029943	1140.765880335710	212.598509979426	349.826032615026	962.807719807431	396.758480860414	601.232942022381	882.389223048651	300.689925143358	665.465549205176	913.177787858311	202.330543293966	600.551550895780	767.740415684763	42.992380608435	568.271111829072	938.088228546759	96.095751141628	607.813186718989	849.355450688961	36.456484037227	645.445768932386	1057.988847057298	42.098893602116	638.068422203089	1050.024155040793	41.416667045381	391.003936225311	1121.088223382912	41.522878187494	308.402643028032	1198.496922312916	112.061132426944	328.055878424164	1328.642276384747	71.820261083065	296.717207343444	853.551638895434	1092.216944472412	249.840233001444	869.543115518359	833.150698992925	225.575507173302	1165.053585788087	1117.941138424129	790.849452603545	1405.302319845772	1145.050227024842	715.767214265698	
72	46.508642857143	815.946864437513	1001.582285366232	539.081763461012	959.558339973799	1431.767153853142	340.243083864535	1089.188295251288	1362.117901059685	480.490916576931	1036.947688081363	1433.362551678328	667.047283148372	970.848845993057	1491.032554787052	498.213098068493	1057.480061543727	936.615736949016	624.230403057810	1007.922895814220	959.138993007343	352.931607775710	1056.179035644537	725.025197500573	598.032386757560	957.421146773780	629.492124003236	666.886543944576	1014.667146795803	564.965748199986	584.375503501633	996.950415083061	481.139946745634	591.309823346082	1082.587082407507	767.338373059248	373.011421688624	1018.958763975129	638.563223970699	306.536886819637	1125.455960654211	577.424873859217	357.898003360523	1146.868499456705	511.092377760262	356.371061429939	1126.889077820644	438.392176842441	347.977162235959	1050.497623059747	312.989072650495	300.897196956951	1133.493751922532	208.694456358769	351.930647593371	959.989544239294	396.046384523297	600.124785586296	878.827399052306	300.835358711582	664.777104049458	908.634525036057	202.020909631499	600.135966575745	762.272180484517	43.056617495565	568.346133005489	932.626368444406	96.068383540749	607.775910569078	843.901880903274	36.388667156794	645.466691516340	1052.503641914273	41.928225820810	638.126784238941	1038.507909236251	40.101782253859	393.204409613717	1109.587297189094	39.245910034848	310.503094505161	1188.813951535925	107.390469539774	331.058855209312	1318.201594539331	64.030173519514	299.332139729417	854.353172173088	1090.622567942137	246.149481648120	873.814160965688	831.796490945434	221.073129938295	1162.649407378388	1116.917050737986	787.903399806454	1403.267435516016	1141.942263322640	713.124537471883	
73	46.522285714286	816.985562686211	1000.603963813660	536.033277557958	958.964053683737	1430.693515820720	336.680127783696	1088.680440803234	1361.989931390808	477.269408141840	1035.775291484041	1433.270002141355	663.684503502858	969.790546304199	1490.336647950815	494.611977988386	1058.435258555020	936.057865211829	622.033735582076	1009.666196057626	958.038661858229	350.750363808210	1056.528261878863	724.083117490009	596.414796114457	956.774394609356	629.098392024286	665.062949861609	1013.703544500607	564.051616838630	582.817783951540	995.376501521388	479.982337454996	589.704759008546	1084.293278875268	765.561927593404	371.684364637365	1019.350740791392	637.028667831015	306.047517723799	1125.517165010564	575.758017707563	357.833868286471	1145.567717102056	508.344612200082	356.952374427398	1124.843023274707	435.321333656992	348.480063425200	1046.305351947886	311.039350022769	301.580641781816	1126.965821425275	205.382329748811	353.539517276382	957.555346980588	395.311199623141	598.860850497496	875.532672370391	301.096657427423	663.956753899481	904.261748960084	201.765350045765	599.656851796854	756.814793033319	43.271465220260	568.437474348542	927.228802156433	96.084329176632	607.745044028897	838.473516858841	36.374379953379	645.463211764292	1047.047205081093	41.705822075408	638.193544391542	1028.183141656248	39.087218167247	394.780177195266	1099.347078686804	37.524445818074	312.044670097099	1180.056200535771	103.565822457002	333.557364343032	1308.836767269381	57.610224840671	301.577212463278	855.723400255461	1088.976448352943	242.261636274669	878.715724379355	830.430535185394	216.471178936795	1159.721883504408	1115.863545781629	785.031072578151	1400.840632268244	1137.725250350330	710.657596154887	
74	46.535928571429	817.987373591050	999.827133958680	532.856222202734	958.619984200804	1429.752663562029	332.963204219109	1088.329988417246	1361.953380269659	473.958622132940	1034.741709245178	1433.372840029910	660.179490352920	968.919059587643	1489.807110499588	490.835952187232	1059.305349798444	935.622623618495	619.697893378837	1011.354858433449	957.210176471591	348.452640702651	1057.060930742777	723.305345815939	594.569491359768	956.523659821328	628.730859215706	663.011410606649	1013.270343772151	563.229663978587	581.022360559017	994.460910487954	478.738833144556	587.954210352739	1085.913995088786	764.098695796286	370.439687879321	1019.974337284107	636.002085834253	305.226043617246	1125.602091950863	574.481322654143	357.709007343728	1144.271923889063	506.110105000029	357.351674711450	1123.020521617211	432.834332137819	348.628611432250	1042.848303289659	309.532379681004	301.630806631653	1121.292444006531	202.766793730249	354.629380285851	955.591738971206	394.569463241561	597.463091929521	872.558356484808	301.515451293896	663.003093864187	900.109068608705	201.600168206124	599.124418033413	751.376295925210	43.719949501998	568.549834883168	921.926660351496	96.158024345712	607.728458020893	833.078844669886	36.455337665994	645.433749258542	1041.628923983573	41.428923028699	638.265818993985	1019.226271232558	38.393718238131	395.775278898245	1090.509968987002	36.363689909763	313.047304618892	1172.335354198317	100.686471042419	335.471355803775	1300.666533165233	52.730168077522	303.339159553967	857.711326600514	1087.350648299188	238.190782193201	884.230558864731	829.126078529412	211.805148362524	1156.276389946822	1114.827421260313	782.230291003701	1397.982250615432	1132.359269936234	708.366185920679	
